<?xml version="1.0" standalone="no"?>
<!DOCTYPE svg PUBLIC "-//W3C//DTD SVG 20010904//EN"
 "http://www.w3.org/TR/2001/REC-SVG-20010904/DTD/svg10.dtd">
<svg version="1.0" xmlns="http://www.w3.org/2000/svg"
 width="1083.000000pt" height="1083.000000pt" viewBox="0 0 1083.000000 1083.000000"
 preserveAspectRatio="xMidYMid meet">
<metadata>
Created by potrace 1.11, written by Peter Selinger 2001-2013
</metadata>
<g transform="translate(0.000000,1083.000000) scale(0.100000,-0.100000)"
fill="#000000" stroke="none">
<path d="M1543 8242 l-23 -3 0 -2827 0 -2827 428 0 427 0 0 1170 0 1170 86 88
86 87 116 -142 c64 -79 180 -222 258 -318 78 -96 156 -193 174 -215 18 -22
115 -141 214 -265 100 -124 204 -252 231 -285 27 -33 94 -116 150 -185 55 -69
106 -132 113 -140 7 -8 39 -49 72 -90 33 -41 62 -77 66 -80 3 -3 41 -50 85
-105 43 -55 81 -102 84 -105 3 -3 32 -39 65 -80 33 -41 65 -80 70 -86 6 -6 21
-26 35 -44 14 -18 30 -38 35 -44 6 -6 47 -56 90 -111 90 -112 106 -132 152
-184 l32 -36 570 0 c505 0 568 2 558 15 -16 21 -137 170 -163 200 -12 14 -74
88 -138 165 -63 77 -122 147 -129 155 -8 8 -69 83 -138 165 -68 83 -128 155
-134 161 -5 7 -24 29 -42 50 -17 22 -39 49 -50 61 -10 11 -34 40 -53 64 -69
85 -392 475 -413 499 -12 14 -155 185 -317 380 -542 653 -933 1125 -957 1153
l-23 29 1270 1271 c698 700 1270 1276 1270 1281 0 6 -219 9 -553 8 -649 -1
-573 1 -589 -16 -7 -7 -159 -163 -338 -346 -179 -183 -356 -365 -395 -405 -38
-40 -164 -169 -280 -287 -211 -216 -659 -675 -991 -1016 l-179 -184 0 1126 c0
619 -2 1126 -5 1127 -20 2 -810 3 -827 1z"/>
<path d="M6489 8160 c0 -102 0 -5514 0 -5550 l1 -25 419 0 c231 0 423 4 428 8
4 5 9 606 9 1335 1 730 2 1332 3 1338 1 9 232 12 904 12 496 1 922 1 947 1
l45 1 0 400 0 400 -946 0 c-749 0 -948 3 -951 13 -4 10 -3 1320 1 1338 0 4
427 7 949 7 521 0 963 1 982 1 l35 1 0 400 c0 349 -2 400 -15 401 -8 0 -644 1
-1413 2 l-1397 2 -1 -85z"/>
</g>
</svg>
